#
# Track frame offsets:
#   150
#   77682
#   143885
#   188002
#   242132
#   249975
#
# Disc length: 3795 seconds
#
# Submitted via: cddb-tool 0.4.7
#
#blues,classical,country,data,folk,jazz,newage,reggae,rock,soundtrack,misc
#CATEGORY=misc
DISCID=460ed106
DTITLE=Schubert / Great Symphony
DYEAR=1998
DGENRE=Classic
TTITLE0=Symphony No. 9 in C Major - Andante - Allegro ma non troppo
TTITLE1=Symphony No. 9 in C Major - Andante con moto
TTITLE2=Symphony No. 9 in C Major - Scherzo. Allegro vivace
TTITLE3=Symphony No. 9 in C Major - Finale. Allegro vevace
TTITLE4=Moment musicaux Op. 94 No. 3 in F Minor
TTITLE5=Impromtus Op. 90 No. 4 in A flat Major
EXTD=
EXTT0=
EXTT1=
EXTT2=
EXTT3=
EXTT4=
EXTT5=
PLAYORDER=
